<svg width="173" height="60" viewBox="0 0 173 60" fill="none" xmlns="http://www.w3.org/2000/svg">
<path d="M25.9277 24.1719C25.5208 22.6745 24.7314 21.5189 23.5596 20.7051C22.404 19.875 20.9635 19.4681 19.2383 19.4844C17.513 19.4844 16.0075 19.9076 14.7217 20.7539C13.4521 21.6003 12.4674 22.8372 11.7676 24.4648C11.084 26.0762 10.7422 28.013 10.7422 30.2754C10.7422 32.5703 11.0758 34.5316 11.7432 36.1592C12.4268 37.7868 13.4033 39.0319 14.6729 39.8945C15.9424 40.7409 17.4642 41.1641 19.2383 41.1641C21.5658 41.1641 23.3724 40.6025 24.6582 39.4795C25.9603 38.3564 26.6439 36.8184 26.709 34.8652H19.5801V28.7617H34.7168V33.4004C34.7168 36.4766 34.0576 39.154 32.7393 41.4326C31.4209 43.7113 29.5898 45.4609 27.2461 46.6816C24.9023 47.8861 22.2168 48.4883 19.1895 48.4883C15.8366 48.4883 12.8825 47.7559 10.3271 46.291C7.77181 44.8262 5.78613 42.7266 4.37012 39.9922C2.9541 37.2578 2.24609 34.0514 2.24609 30.373C2.24609 26.6296 2.97852 23.3825 4.44336 20.6318C5.92448 17.8812 7.93457 15.7816 10.4736 14.333C13.029 12.8844 15.8854 12.1602 19.043 12.1602C21.7285 12.1602 24.1781 12.6729 26.3916 13.6982C28.6214 14.7074 30.4362 16.1234 31.8359 17.9463C33.2357 19.7692 34.082 21.8444 34.375 24.1719H25.9277Z" fill="black"/>
<path d="M97.6855 12.6484H112.139C114.759 12.6484 117.038 13.1611 118.975 14.1865C120.911 15.1956 122.393 16.6198 123.418 18.459C124.46 20.2982 124.98 22.4141 124.98 24.8066C124.98 27.2318 124.451 29.3558 123.394 31.1787C122.352 33.0016 120.838 34.4176 118.853 35.4268C116.883 36.4196 114.564 36.916 111.895 36.916H105.986V48H97.6855V12.6484ZM110.381 30.3242C112.301 30.3405 113.783 29.8522 114.824 28.8594C115.866 27.8665 116.387 26.5156 116.387 24.8066C116.387 23.1302 115.866 21.8118 114.824 20.8516C113.799 19.875 112.318 19.3867 110.381 19.3867H105.986V30.3242H110.381ZM127.959 12.6484H157.695V19.4355H146.953V48H138.701V19.4355H127.959V12.6484ZM170.146 48H161.846V12.6484H170.146V48Z" fill="black"/>
<path d="M42.9375 55.9688C41.3359 55.9427 40.2422 55.9036 39.6562 55.8516V50.8516C40.4245 50.9036 41.2839 50.9297 42.2344 50.9297C42.8724 50.9297 43.3802 50.832 43.7578 50.6367C44.1484 50.4544 44.474 50.0443 44.7344 49.4062L44.9688 48.7422L37.4297 26.7891H44.3047L48.3281 42.0234H48.5625L52.5859 26.7891H59.5391L51.4922 50.0703C50.8542 51.9453 49.8581 53.3906 48.5039 54.4062C47.1497 55.4349 45.2943 55.9557 42.9375 55.9688ZM62.0781 26.7891H68.3281V30.6562H68.5625C69.0182 29.3542 69.7734 28.3385 70.8281 27.6094C71.8828 26.8802 73.1328 26.5156 74.5781 26.5156C76.0495 26.5156 77.2995 26.8932 78.3281 27.6484C79.3698 28.3906 80.0339 29.3932 80.3203 30.6562H80.5547C80.9714 29.3932 81.7526 28.3906 82.8984 27.6484C84.0443 26.8932 85.3984 26.5156 86.9609 26.5156C88.2891 26.5156 89.4609 26.8086 90.4766 27.3945C91.5052 27.9674 92.2995 28.7943 92.8594 29.875C93.4323 30.9557 93.7188 32.2318 93.7188 33.7031V48H87.1172V35.1875C87.1302 34.1328 86.8568 33.319 86.2969 32.7461C85.75 32.1602 85.0208 31.8672 84.1094 31.8672C83.1719 31.8672 82.4297 32.1797 81.8828 32.8047C81.3359 33.4167 81.0625 34.237 81.0625 35.2656V48H74.7344V35.1094C74.7344 34.1198 74.4609 33.332 73.9141 32.7461C73.3802 32.1602 72.6641 31.8672 71.7656 31.8672C70.8411 31.8672 70.0924 32.1927 69.5195 32.8438C68.9466 33.4948 68.6667 34.3542 68.6797 35.4219V48H62.0781V26.7891Z" fill="black"/>
<circle cx="48.5" cy="23.5" r="2.5" fill="black"/>
</svg>
